<svg xmlns="http://www.w3.org/2000/svg" width="2330" height="1273" viewBox="10 10 2330 1273" style="font-family:&#x27;Segoe UI&#x27;, system-ui, sans-serif;background:#fafafa"><g class="orm-content"><g><path data-kind="edge" data-source="ot-customer" data-target="ft-places" d="M 1004 571 L 1137 482" fill="none" stroke="#666666" stroke-width="1.2"></path></g><g><path data-kind="edge" data-source="ot-order" data-target="ft-places" d="M 1342 393 L 1209 482" fill="none" stroke="#666666" stroke-width="1.2"></path><circle cx="1225.6217538806682" cy="470.87717221519205" r="4" fill="#333333"></circle></g><g><path data-kind="edge" data-source="ot-order" data-target="ft-contains" d="M 1414 353 L 1546 291" fill="none" stroke="#666666" stroke-width="1.2"></path></g><g><path data-kind="edge" data-source="ot-order-line" data-target="ft-contains" d="M 1750 229 L 1618 291" fill="none" stroke="#666666" stroke-width="1.2"></path></g><g><path data-kind="edge" data-source="ot-order-line" data-target="ft-line-product" d="M 1853 189 L 1975 149" fill="none" stroke="#666666" stroke-width="1.2"></path></g><g><path data-kind="edge" data-source="ot-product" data-target="ft-line-product" d="M 2177 107 L 2047 149" fill="none" stroke="#666666" stroke-width="1.2"></path></g><g><path data-kind="edge" data-source="ot-employee" data-target="ft-works-in" d="M 558 836 L 450 973" fill="none" stroke="#666666" stroke-width="1.2"></path></g><g><path data-kind="edge" data-source="ot-department" data-target="ft-works-in" d="M 343 1183 L 450 1045" fill="none" stroke="#666666" stroke-width="1.2"></path></g><g><path data-kind="edge" data-source="ot-employee" data-target="ft-belongs-to" d="M 517 815 L 380 813" fill="none" stroke="#666666" stroke-width="1.2"></path></g><g><path data-kind="edge" data-source="ot-team" data-target="ft-belongs-to" d="M 160 810 L 308 813" fill="none" stroke="#666666" stroke-width="1.2"></path></g><g><path data-kind="edge" data-source="ot-team" data-target="ft-team-dept" d="M 128 829 L 221 970" fill="none" stroke="#666666" stroke-width="1.2"></path></g><g><path data-kind="edge" data-source="ot-department" data-target="ft-team-dept" d="M 314 1183 L 221 1042" fill="none" stroke="#666666" stroke-width="1.2"></path></g><g><path data-kind="edge" data-source="ot-customer" data-target="ft-bridge" d="M 945 611 L 810 703" fill="none" stroke="#666666" stroke-width="1.2"></path></g><g><path data-kind="edge" data-source="ot-employee" data-target="ft-bridge" d="M 603 796 L 738 703" fill="none" stroke="#666666" stroke-width="1.2"></path></g><g data-id="ot-customer" data-kind="object_type" style="cursor:move"><rect x="918" y="571" width="112" height="40" rx="6" ry="6" fill="#e8f4fd" stroke="#3a86c8" stroke-width="1.5"></rect><text x="974" y="588" text-anchor="middle" dominant-baseline="central" fill="#1a1a1a" font-size="13" font-weight="600">Customer</text><text x="974" y="603" text-anchor="middle" dominant-baseline="central" fill="#666666" font-size="10">(customer_id)</text></g><g data-id="ot-order" data-kind="object_type" style="cursor:move"><rect x="1327" y="353" width="90" height="40" rx="6" ry="6" fill="#e8f4fd" stroke="#3a86c8" stroke-width="1.5"></rect><text x="1372" y="370" text-anchor="middle" dominant-baseline="central" fill="#1a1a1a" font-size="13" font-weight="600">Order</text><text x="1372" y="385" text-anchor="middle" dominant-baseline="central" fill="#666666" font-size="10">(order_number)</text></g><g data-id="ot-order-line" data-kind="object_type" style="cursor:move"><rect x="1732" y="189" width="121" height="40" rx="6" ry="6" fill="#e8f4fd" stroke="#3a86c8" stroke-width="1.5"></rect><text x="1792.5" y="206" text-anchor="middle" dominant-baseline="central" fill="#1a1a1a" font-size="13" font-weight="600">OrderLine</text><text x="1792.5" y="221" text-anchor="middle" dominant-baseline="central" fill="#666666" font-size="10">(line_number)</text></g><g data-id="ot-product" data-kind="object_type" style="cursor:move"><rect x="2177" y="70" width="103" height="40" rx="6" ry="6" fill="#e8f4fd" stroke="#3a86c8" stroke-width="1.5"></rect><text x="2228.5" y="87" text-anchor="middle" dominant-baseline="central" fill="#1a1a1a" font-size="13" font-weight="600">Product</text><text x="2228.5" y="102" text-anchor="middle" dominant-baseline="central" fill="#666666" font-size="10">(sku)</text></g><g data-id="ot-employee" data-kind="object_type" style="cursor:move"><rect x="517" y="796" width="112" height="40" rx="6" ry="6" fill="#e8f4fd" stroke="#3a86c8" stroke-width="1.5"></rect><text x="573" y="813" text-anchor="middle" dominant-baseline="central" fill="#1a1a1a" font-size="13" font-weight="600">Employee</text><text x="573" y="828" text-anchor="middle" dominant-baseline="central" fill="#666666" font-size="10">(employee_id)</text></g><g data-id="ot-department" data-kind="object_type" style="cursor:move"><rect x="262" y="1183" width="130" height="40" rx="6" ry="6" fill="#e8f4fd" stroke="#3a86c8" stroke-width="1.5"></rect><text x="327" y="1200" text-anchor="middle" dominant-baseline="central" fill="#1a1a1a" font-size="13" font-weight="600">Department</text><text x="327" y="1215" text-anchor="middle" dominant-baseline="central" fill="#666666" font-size="10">(dept_code)</text></g><g data-id="ot-team" data-kind="object_type" style="cursor:move"><rect x="70" y="789" width="90" height="40" rx="6" ry="6" fill="#e8f4fd" stroke="#3a86c8" stroke-width="1.5"></rect><text x="115" y="806" text-anchor="middle" dominant-baseline="central" fill="#1a1a1a" font-size="13" font-weight="600">Team</text><text x="115" y="821" text-anchor="middle" dominant-baseline="central" fill="#666666" font-size="10">(team_code)</text></g><g data-id="ft-places" data-kind="fact_type" style="cursor:move"><g><rect x="1137" y="468" width="36" height="28" fill="#ffffff" stroke="#333333" stroke-width="1"></rect></g><g><rect x="1173" y="468" width="36" height="28" fill="#ffffff" stroke="#333333" stroke-width="1"></rect><rect x="1177" y="461" width="28" height="3" fill="#3a86c8" rx="1"></rect></g><text x="1173" y="510" text-anchor="middle" fill="#1a1a1a" font-size="9" font-style="italic">Customer places Order</text></g><g data-id="ft-contains" data-kind="fact_type" style="cursor:move"><g><rect x="1546" y="277" width="36" height="28" fill="#ffffff" stroke="#333333" stroke-width="1"></rect></g><g><rect x="1582" y="277" width="36" height="28" fill="#ffffff" stroke="#333333" stroke-width="1"></rect><rect x="1586" y="270" width="28" height="3" fill="#3a86c8" rx="1"></rect></g><text x="1582" y="319" text-anchor="middle" fill="#1a1a1a" font-size="9" font-style="italic">Order contains OrderLine</text></g><g data-id="ft-line-product" data-kind="fact_type" style="cursor:move"><g><rect x="1975" y="135" width="36" height="28" fill="#ffffff" stroke="#333333" stroke-width="1"></rect><rect x="1979" y="128" width="28" height="3" fill="#3a86c8" rx="1"></rect></g><g><rect x="2011" y="135" width="36" height="28" fill="#ffffff" stroke="#333333" stroke-width="1"></rect></g><text x="2011" y="177" text-anchor="middle" fill="#1a1a1a" font-size="9" font-style="italic">OrderLine lists Product</text></g><g data-id="ft-works-in" data-kind="fact_type" style="cursor:move"><g><rect x="436" y="973" width="28" height="36" fill="#ffffff" stroke="#333333" stroke-width="1"></rect><rect x="429" y="977" width="3" height="28" fill="#3a86c8" rx="1"></rect></g><g><rect x="436" y="1009" width="28" height="36" fill="#ffffff" stroke="#333333" stroke-width="1"></rect></g><text x="472" y="1009" text-anchor="start" dominant-baseline="central" fill="#1a1a1a" font-size="9" font-style="italic">Employee works in Department</text></g><g data-id="ft-belongs-to" data-kind="fact_type" style="cursor:move"><g><rect x="308" y="799" width="36" height="28" fill="#ffffff" stroke="#333333" stroke-width="1"></rect></g><g><rect x="344" y="799" width="36" height="28" fill="#ffffff" stroke="#333333" stroke-width="1"></rect><rect x="348" y="792" width="28" height="3" fill="#3a86c8" rx="1"></rect></g><text x="344" y="841" text-anchor="middle" fill="#1a1a1a" font-size="9" font-style="italic">Employee belongs to Team</text></g><g data-id="ft-team-dept" data-kind="fact_type" style="cursor:move"><g><rect x="207" y="970" width="28" height="36" fill="#ffffff" stroke="#333333" stroke-width="1"></rect><rect x="200" y="974" width="3" height="28" fill="#3a86c8" rx="1"></rect></g><g><rect x="207" y="1006" width="28" height="36" fill="#ffffff" stroke="#333333" stroke-width="1"></rect></g><text x="243" y="1006" text-anchor="start" dominant-baseline="central" fill="#1a1a1a" font-size="9" font-style="italic">Team serves Department</text></g><g data-id="ft-bridge" data-kind="fact_type" style="cursor:move"><g><rect x="738" y="689" width="36" height="28" fill="#ffffff" stroke="#333333" stroke-width="1"></rect></g><g><rect x="774" y="689" width="36" height="28" fill="#ffffff" stroke="#333333" stroke-width="1"></rect><rect x="778" y="682" width="28" height="3" fill="#3a86c8" rx="1"></rect></g><text x="774" y="731" text-anchor="middle" fill="#1a1a1a" font-size="9" font-style="italic">Customer is served by Employee</text></g></g></svg>